<?xml version="1.0" standalone="no"?>
<!DOCTYPE svg PUBLIC "-//W3C//DTD SVG 20010904//EN"
 "http://www.w3.org/TR/2001/REC-SVG-20010904/DTD/svg10.dtd">
<svg version="1.0" xmlns="http://www.w3.org/2000/svg"
 width="3740.000000pt" height="3740.000000pt" viewBox="0 0 3740.000000 3740.000000"
 preserveAspectRatio="xMidYMid meet">
<metadata>
Created by potrace 1.14, written by Peter Selinger 2001-2017
</metadata>
<g transform="translate(0.000000,3740.000000) scale(0.100000,-0.100000)"
fill="#000000" stroke="none">
<path d="M16900 37384 c-218 -28 -491 -105 -795 -225 -181 -71 -861 -418
-1160 -591 -66 -38 -147 -87 -180 -108 -33 -22 -69 -44 -80 -50 -11 -6 -38
-24 -60 -41 -22 -16 -51 -37 -65 -46 -31 -21 -143 -105 -150 -113 -37 -40
-173 -135 -234 -163 -43 -20 -105 -55 -137 -77 -56 -38 -62 -40 -136 -40 -88
0 -213 -27 -296 -64 -190 -84 -408 -306 -502 -512 -55 -120 -85 -308 -65 -400
7 -29 -2 -45 -94 -172 -55 -77 -135 -183 -176 -237 -77 -99 -121 -159 -168
-230 -15 -22 -29 -42 -33 -45 -19 -16 -239 -360 -304 -475 -54 -97 -238 -451
-268 -515 -97 -213 -186 -541 -205 -755 -13 -157 -6 -522 12 -635 3 -14 7 -47
10 -75 9 -73 15 -115 26 -165 5 -25 12 -60 15 -79 3 -19 8 -37 10 -41 2 -4 6
-20 9 -36 5 -24 18 -69 60 -209 2 -5 8 -23 14 -38 7 -16 12 -32 12 -37 0 -5
25 -59 56 -119 65 -126 139 -228 431 -591 6 -8 80 -100 164 -205 84 -104 172
-213 196 -242 49 -58 49 -57 -32 -83 -163 -51 -388 -157 -555 -263 -52 -33
-115 -71 -140 -85 -195 -107 -423 -284 -606 -468 -196 -197 -262 -308 -265
-444 -3 -130 63 -250 181 -331 l23 -15 -49 -39 c-92 -74 -272 -266 -303 -324
-34 -65 -41 -91 -48 -182 -6 -76 10 -140 59 -247 26 -58 37 -70 72 -86 107
-48 158 -66 204 -73 l51 -8 -45 -50 c-25 -27 -57 -66 -72 -85 -15 -19 -33 -41
-40 -49 -35 -37 -116 -168 -131 -214 -52 -152 1 -324 127 -419 26 -19 72 -54
104 -76 l56 -41 149 50 c327 112 683 200 683 170 0 -5 -4 -11 -9 -13 -25 -9
-236 -203 -361 -333 -78 -81 -98 -104 -186 -220 -52 -68 -134 -197 -134 -210
0 -2 -31 -58 -70 -124 -38 -66 -70 -122 -70 -125 0 -2 -25 -46 -55 -97 -30
-52 -55 -99 -55 -105 0 -7 34 -14 88 -19 48 -4 94 -8 102 -10 8 -1 49 -5 90
-9 41 -4 95 -9 120 -13 25 -3 57 -7 73 -8 67 -4 68 -5 63 -22 -2 -10 -7 -40
-11 -68 -7 -59 -15 -120 -20 -155 -2 -14 -9 -63 -15 -110 -6 -47 -13 -96 -15
-110 -2 -14 -7 -50 -10 -80 -3 -30 -8 -67 -11 -82 -2 -16 -1 -28 4 -28 5 0 41
11 80 24 40 14 72 21 72 17 0 -8 -78 -133 -89 -141 -3 -3 -20 -25 -36 -50 -51
-77 -58 -82 -260 -188 -277 -146 -413 -230 -468 -291 -38 -42 -88 -116 -91
-135 -1 -6 -4 -15 -8 -21 -5 -9 -29 -118 -44 -205 -3 -19 -6 -77 -5 -128 l0
-93 -105 -50 c-58 -27 -107 -49 -109 -49 -1 0 -41 -17 -87 -39 -45 -21 -117
-53 -158 -71 -41 -18 -100 -44 -130 -57 -30 -14 -100 -45 -155 -70 -182 -82
-579 -280 -675 -337 -244 -145 -395 -242 -514 -328 -71 -51 -134 -97 -140
-103 -6 -5 -77 -63 -159 -128 -81 -65 -153 -124 -160 -130 -6 -7 -39 -35 -72
-62 -106 -88 -154 -135 -435 -416 -151 -152 -297 -294 -325 -315 -27 -21 -52
-42 -55 -45 -6 -6 -315 -244 -356 -274 -172 -124 -410 -373 -546 -570 -116
-169 -202 -377 -223 -540 -3 -27 -10 -81 -16 -120 -15 -105 -19 -136 -24 -177
-3 -20 -18 -70 -34 -110 -17 -40 -32 -86 -35 -101 -2 -15 -7 -35 -10 -45 -7
-26 -15 -82 -22 -164 -5 -56 -12 -82 -33 -113 -26 -39 -86 -158 -130 -258 -59
-134 -216 -643 -236 -767 -3 -19 -7 -46 -10 -60 -13 -71 -28 -182 -46 -335
-10 -87 -7 -311 6 -420 2 -16 6 -61 9 -100 3 -38 8 -79 10 -90 2 -11 7 -46 11
-79 8 -66 11 -90 25 -161 5 -27 12 -66 15 -85 3 -19 7 -46 10 -60 2 -14 7 -42
10 -62 5 -41 14 -98 20 -138 11 -67 15 -92 30 -185 17 -102 21 -213 11 -275
-10 -52 -55 -302 -60 -326 -2 -12 -7 -39 -10 -60 -4 -22 -18 -102 -31 -179
-33 -188 -83 -500 -100 -625 -3 -25 -8 -52 -10 -60 -2 -8 -7 -39 -10 -69 -4
-30 -8 -61 -10 -70 -1 -9 -6 -47 -11 -86 -4 -38 -8 -72 -9 -75 -1 -3 -5 -39
-9 -80 -7 -73 -9 -92 -20 -195 -19 -171 -19 -171 -31 -310 -4 -49 -9 -92 -10
-95 -7 -13 -19 -204 -19 -300 0 -101 11 -312 19 -395 2 -22 7 -87 10 -145 4
-58 8 -116 10 -130 2 -14 6 -54 10 -90 38 -396 86 -597 192 -802 l44 -86 -28
-44 c-46 -72 -61 -99 -108 -196 -41 -83 -98 -238 -109 -295 -2 -12 -7 -33 -10
-47 -28 -118 -37 -287 -23 -440 8 -96 12 -129 33 -260 26 -170 25 -217 -9
-355 -58 -228 -64 -411 -23 -611 18 -85 11 -244 -13 -308 -5 -11 -9 -24 -9
-29 0 -4 -6 -31 -11 -60 -6 -28 -14 -70 -16 -92 -3 -22 -7 -51 -10 -65 -19
-105 -27 -362 -14 -480 12 -112 47 -244 91 -345 54 -123 53 -115 14 -166 -44
-58 -133 -229 -173 -334 -58 -151 -122 -390 -140 -526 -9 -70 -8 -277 1 -354
36 -299 175 -610 357 -802 150 -158 285 -243 579 -364 155 -63 326 -150 377
-190 21 -17 63 -47 93 -68 30 -20 149 -129 265 -242 115 -114 228 -222 250
-240 22 -19 49 -42 60 -52 26 -24 222 -157 230 -157 4 0 19 -8 33 -19 47 -32
215 -116 338 -169 164 -70 804 -283 957 -318 9 -2 25 -6 35 -9 9 -2 44 -11 77
-19 33 -7 67 -16 75 -19 8 -3 98 -24 199 -48 l183 -44 201 -230 c135 -155 359
-389 686 -716 267 -268 509 -511 537 -540 146 -156 344 -314 494 -396 56 -30
198 -89 235 -98 11 -2 38 -9 60 -14 40 -10 101 -20 165 -27 49 -6 210 -5 240
1 14 3 88 7 165 10 77 3 196 7 265 10 69 2 134 6 146 9 12 2 45 7 75 11 30 4
80 13 112 20 31 7 60 13 62 14 57 4 332 79 445 121 82 30 90 31 225 29 174 -4
189 -6 217 -33 13 -13 53 -46 89 -74 36 -28 97 -86 135 -129 86 -96 129 -136
208 -191 127 -90 329 -165 531 -198 22 -3 47 -8 55 -9 8 -2 18 -4 21 -4 3 -1
21 -22 39 -49 36 -49 174 -225 200 -253 8 -9 40 -44 70 -79 240 -279 386 -406
601 -524 90 -48 146 -105 270 -271 121 -163 169 -212 248 -254 89 -47 153 -61
356 -76 38 -3 81 -7 95 -10 14 -2 48 -6 75 -10 119 -15 217 -39 342 -84 122
-45 193 -59 291 -56 111 3 150 14 512 132 l295 97 165 1 c199 2 343 15 475 41
50 10 168 73 216 115 24 21 47 39 52 39 4 0 26 -9 50 -20 150 -70 391 -82 712
-36 209 31 261 43 352 87 134 64 322 226 429 370 27 36 58 78 69 92 23 31 49
35 273 42 78 2 150 6 160 9 9 2 48 7 85 11 37 3 77 8 87 10 10 2 43 6 72 9 54
6 82 10 153 20 22 3 65 8 95 12 30 3 64 7 75 9 11 1 47 6 80 10 62 7 82 10
150 19 61 8 123 15 200 20 39 3 102 8 140 11 122 9 275 28 415 50 177 29 272
43 340 50 30 3 66 8 80 10 14 3 54 9 90 14 36 5 110 16 165 25 55 8 125 18
155 21 30 2 66 7 80 9 14 3 50 7 80 10 99 10 165 17 190 21 14 2 59 6 100 10
41 3 82 8 90 10 8 2 49 7 90 10 41 3 82 8 90 11 8 2 38 6 65 9 54 5 300 33
350 40 17 2 57 7 90 10 33 4 74 8 90 10 103 13 211 21 375 30 58 3 119 7 135
9 17 2 64 7 105 11 41 3 86 8 100 10 14 2 61 7 105 10 44 4 94 8 110 10 17 2
62 6 100 9 39 4 86 8 105 11 19 2 67 7 105 11 39 3 84 8 100 9 17 2 66 6 110
10 44 3 94 8 110 10 17 2 82 6 145 10 63 3 138 8 165 10 28 2 86 7 130 10 44
4 91 8 105 11 14 2 59 6 100 9 41 3 91 8 110 10 19 2 67 7 105 11 130 11 140
12 195 18 30 4 71 9 90 12 19 2 49 6 65 8 38 5 124 18 150 22 10 2 49 6 85 9
36 3 85 8 110 10 25 3 81 7 125 10 44 3 107 8 140 10 33 3 98 7 145 10 47 3
110 7 140 10 30 2 93 7 140 10 221 14 321 22 528 40 31 3 89 7 127 10 39 3
102 7 140 10 39 3 126 7 195 10 69 3 143 8 165 10 22 2 76 6 120 9 44 3 105 8
135 11 75 7 204 15 326 20 56 2 114 6 130 9 87 14 314 26 584 30 129 2 244 9
269 16 158 42 286 163 377 356 22 45 41 87 43 95 2 8 11 42 22 77 44 153 41
342 -7 470 -26 69 -50 109 -100 162 -24 26 -34 48 -38 85 -4 28 -9 57 -11 65
-2 8 -6 35 -9 60 -19 159 -26 247 -41 492 -10 162 -23 326 -29 378 -3 19 -8
67 -11 105 -3 39 -8 81 -10 95 -2 14 -6 61 -10 104 -4 43 -8 86 -10 95 -1 9
-6 57 -10 106 -3 50 -8 108 -10 130 -2 22 -6 76 -10 120 -3 44 -8 103 -10 130
-10 115 -16 209 -20 360 -8 278 -15 457 -20 570 -3 61 -8 144 -9 185 -4 68
-10 181 -21 345 -13 186 -17 244 -21 280 -2 22 -6 137 -9 255 -5 263 -15 525
-20 565 -4 27 -11 127 -20 272 -3 52 -11 156 -21 273 -3 36 -7 175 -10 310 -2
135 -6 274 -9 310 -2 36 -7 272 -9 525 -3 253 -8 537 -12 630 -4 94 -8 454 -9
800 -2 347 -6 772 -10 945 -9 421 -9 1138 0 1435 12 391 9 573 -12 765 -3 30
-7 163 -8 295 -1 132 -5 272 -9 311 -7 60 -5 73 10 88 36 37 98 144 125 216
103 284 10 612 -216 759 -95 61 -158 80 -315 95 -30 3 -82 8 -115 11 -33 4
-71 8 -85 10 -14 3 -54 7 -90 10 -36 3 -76 8 -90 10 -14 3 -58 7 -98 10 -40 4
-83 8 -95 11 -22 4 -53 9 -112 19 -16 3 -97 7 -180 10 -137 5 -194 9 -280 20
-42 5 -131 15 -185 21 -25 2 -62 7 -82 10 -37 5 -112 10 -273 19 -425 24 -523
32 -725 61 -58 8 -123 17 -145 20 -22 3 -51 7 -65 9 -37 5 -121 16 -155 20
-67 8 -193 26 -240 35 -53 10 -69 12 -265 35 -69 8 -161 21 -205 29 -44 8
-100 17 -125 21 -77 10 -160 25 -290 52 -69 14 -148 29 -176 35 -28 5 -51 15
-51 21 -1 7 -6 37 -13 67 -6 30 -13 66 -16 80 -2 14 -9 45 -14 70 -5 25 -12
56 -14 70 -3 14 -20 79 -39 146 -19 66 -38 143 -41 170 -12 95 -15 119 -21
179 -7 74 -13 115 -25 180 -5 28 -12 66 -14 85 -3 19 -7 44 -10 55 -11 57 -25
212 -31 360 -2 66 -7 172 -10 235 -2 63 -7 178 -10 255 -6 170 -13 260 -30
395 -2 19 -7 89 -10 155 -12 241 -16 275 -40 372 -43 165 -199 453 -288 529
-40 35 -104 87 -170 141 l-49 39 -3 101 c-3 121 -17 184 -59 278 -31 68 -102
165 -155 213 -85 77 -197 137 -347 188 -124 41 -147 52 -304 144 -63 37 -130
76 -147 86 -99 57 -353 220 -608 390 -305 203 -341 228 -524 358 -149 106
-260 184 -441 310 -25 17 -50 36 -56 41 -7 6 -69 48 -139 95 -69 47 -184 127
-253 179 -70 51 -137 98 -148 103 -25 12 -23 8 -108 208 -66 158 -111 270
-211 532 l-56 148 55 107 c31 60 82 164 114 233 32 69 85 168 117 220 64 103
228 340 280 405 31 39 372 383 451 455 92 84 403 319 454 343 8 4 31 17 50 28
157 95 396 196 680 288 80 26 177 59 215 74 39 14 81 28 95 31 14 3 79 19 145
36 120 31 121 31 380 30 255 -1 360 -4 480 -14 33 -3 107 -8 165 -12 58 -3
107 -8 110 -9 15 -9 211 -20 335 -20 161 1 222 8 320 39 132 42 207 97 410
300 187 187 264 302 324 482 43 129 46 152 21 231 -12 37 -24 79 -26 93 -3 14
-15 63 -28 110 -41 147 -52 215 -57 361 l-2 71 69 66 c248 234 344 335 344
360 0 7 5 12 10 12 6 0 10 5 10 11 0 6 9 24 21 40 26 38 65 133 74 184 13 72
12 209 -2 270 -17 74 -62 172 -107 234 l-34 46 28 70 c33 83 40 115 45 213 7
122 -6 175 -88 357 -123 274 -162 332 -279 410 -62 41 -63 42 -58 135 5 91 3
332 -4 560 -15 445 -13 412 -41 605 -29 192 -98 301 -258 403 -85 55 -172 88
-257 98 -30 3 -89 14 -130 24 -81 19 -136 29 -215 36 -66 6 -100 18 -225 76
-58 27 -114 53 -125 59 -11 5 -40 16 -63 24 -24 8 -83 37 -132 64 -78 45 -289
141 -308 141 -4 0 -65 23 -137 51 -71 28 -179 69 -240 90 -60 22 -117 43 -125
46 -8 3 -19 7 -25 9 -5 2 -30 10 -55 20 -67 24 -164 52 -265 75 -114 26 -111
26 -165 33 -25 3 -56 8 -70 10 -30 5 -115 17 -150 21 -14 1 -59 7 -100 13 -41
6 -95 14 -120 17 -25 3 -56 7 -70 9 -14 2 -50 7 -80 11 -30 4 -64 9 -75 10
-11 2 -38 7 -60 10 -44 6 -62 9 -185 31 -99 17 -251 57 -304 79 -20 8 -38 15
-41 15 -12 -1 -123 61 -162 89 -38 27 -112 124 -298 390 -60 86 -112 183 -130
241 -4 14 -15 39 -25 55 -10 17 -63 118 -117 225 -94 186 -181 328 -254 415
-84 100 -335 335 -358 335 -6 0 -11 3 -11 8 0 4 -20 18 -45 31 -25 13 -45 27
-45 31 0 4 12 13 28 21 15 8 65 36 112 63 47 27 105 60 130 74 25 14 73 43
108 64 34 21 67 38 72 38 6 0 10 4 10 8 0 4 19 18 43 30 49 26 67 37 247 151
74 47 181 118 237 157 56 40 146 103 200 140 143 99 366 263 440 325 16 13 42
33 57 44 16 11 33 25 40 30 6 6 49 40 96 75 100 77 92 71 200 156 78 62 196
162 263 224 72 65 265 303 354 435 51 75 84 215 85 354 0 107 -5 137 -36 232
-42 130 -140 265 -251 351 -27 21 -55 43 -62 48 -24 19 -143 69 -200 84 -108
27 -266 38 -373 25 -104 -13 -163 -21 -184 -25 -12 -3 -32 -7 -46 -10 -390
-74 -789 -188 -1055 -303 -11 -4 -72 -30 -135 -56 -63 -27 -146 -63 -185 -81
-38 -18 -108 -50 -155 -72 -47 -22 -126 -56 -175 -77 -50 -20 -103 -43 -120
-50 -16 -7 -79 -34 -140 -60 -114 -49 -420 -199 -560 -275 -96 -52 -471 -262
-538 -302 -26 -15 -50 -28 -52 -28 -2 0 -30 -15 -62 -34 -94 -54 -397 -216
-406 -216 -6 0 -77 70 -132 131 -237 260 -250 274 -530 542 -173 166 -178 170
-465 427 -63 56 -124 112 -136 124 -25 25 -102 91 -188 160 -62 50 -266 187
-432 288 -160 99 -403 206 -549 243 -16 5 -34 10 -40 11 -66 21 -189 43 -264
49 -52 3 -98 8 -103 11 -18 11 -246 9 -338 -2z m3085 -4164 c3 -5 -1 -10 -9
-10 -9 0 -16 5 -16 10 0 6 4 10 9 10 6 0 13 -4 16 -10z"/>
<path d="M29626 30435 c-10 -7 -15 -19 -11 -25 5 -8 13 -5 26 9 30 32 21 43
-15 16z"/>
</g>
</svg>
